# xmcd
#
# Track frame offsets:
#	150
#	19363
#	33600
#	51825
#	74360
#	93521
#	122552
#	158982
#	180262
#	205344
#	231479
#
# Disc length: 3474 seconds
#
# Revision: 0
# Processed by: cddbd v1.5.1PL2 Copyright (c) Steve Scherf et al.
# Submitted via: audiograbber 1.81.02
#
DISCID=990d900b
DTITLE=Dieter B. Kabus - 5 Geschwister - Im geheimnisvollen Parlazzo (Folge 4)
DYEAR=2006
DGENRE=Vocal
TTITLE0=Der Schrei
TTITLE1=Karge Belohnung
TTITLE2=Interessante Pizza
TTITLE3=Palazzo unter Beobachtung
TTITLE4=Unfreiwillige Kahnfahrt - wohin?
TTITLE5=Spurensuche im Palazzo
TTITLE6=Merkwürdige Begegnung
TTITLE7=Der zweite Professor
TTITLE8=Klappt der verwegene Plan?
TTITLE9=Die Verfolgungsjagd
TTITLE10=Reingelegt!
EXTD=www.gerth.de - ArtNo. 938334
EXTT0=
EXTT1=
EXTT2=
EXTT3=
EXTT4=
EXTT5=
EXTT6=
EXTT7=
EXTT8=
EXTT9=
EXTT10=
PLAYORDER=
